<svg width="16" height="16" viewBox="0 0 16 16" fill="none" xmlns="http://www.w3.org/2000/svg">
<path d="M12.25 16H3.75C1.68225 16 0 14.3177 0 12.25V3.75C0 1.68225 1.68225 0 3.75 0H12.25C14.3177 0 16 1.68225 16 3.75V12.25C16 14.3177 14.3177 16 12.25 16ZM3.75 1.25C2.3715 1.25 1.25 2.3715 1.25 3.75V12.25C1.25 13.6285 2.3715 14.75 3.75 14.75H12.25C13.6285 14.75 14.75 13.6285 14.75 12.25V3.75C14.75 2.3715 13.6285 1.25 12.25 1.25H3.75Z" fill="black"/>
<path d="M4 4.25C4 3.83579 4.33579 3.5 4.75 3.5H8H11.25C11.6642 3.5 12 3.83579 12 4.25V4.25C12 4.66421 11.6642 5 11.25 5H4.75C4.33579 5 4 4.66421 4 4.25V4.25Z" fill="black"/>
<path d="M4 8.25C4 7.83579 4.33579 7.5 4.75 7.5H8H11.25C11.6642 7.5 12 7.83579 12 8.25V8.25C12 8.66421 11.6642 9 11.25 9H4.75C4.33579 9 4 8.66421 4 8.25V8.25Z" fill="black"/>
<path d="M4 12.25C4 11.8358 4.33579 11.5 4.75 11.5H8H11.25C11.6642 11.5 12 11.8358 12 12.25V12.25C12 12.6642 11.6642 13 11.25 13H4.75C4.33579 13 4 12.6642 4 12.25V12.25Z" fill="black"/>
</svg>
